<svg width="101" height="81" viewBox="0 0 101 81" fill="none" xmlns="http://www.w3.org/2000/svg">
<path d="M32.6466 72.8549L31.7678 70.2791H26.0709L25.1618 72.8549H21.4951L26.7375 58.7031H31.0709L36.3133 72.8549H32.6466ZM28.9193 62.0365L26.98 67.6427H30.8284L28.9193 62.0365ZM38.0405 72.8852V58.7334H44.1011C45.8991 58.7334 47.2829 59.1375 48.2526 59.9456C49.2021 60.7335 49.6769 61.8648 49.6769 63.3396C49.6769 64.8346 49.2021 65.976 48.2526 66.7639C47.2829 67.572 45.8991 67.9761 44.1011 67.9761H41.7072V72.8852H38.0405ZM43.7072 61.3699H41.6769V65.3396H43.7072C44.4143 65.3396 44.9597 65.1679 45.3435 64.8245C45.7274 64.481 45.9193 63.9861 45.9193 63.3396C45.9193 62.7133 45.7274 62.2284 45.3435 61.885C44.9597 61.5416 44.4143 61.3699 43.7072 61.3699ZM52.2829 72.8852V58.7334H62.1011V61.4911H55.9193V64.1275H61.7374V66.8851H55.9193V70.1276H62.3132V72.8852H52.2829ZM78.2223 58.7334L73.495 65.673L78.4041 72.8852H74.6162L71.3132 68.0366L68.0405 72.8852H64.2223L69.1314 65.673L64.4041 58.7334H68.2223L71.3132 63.279L74.4041 58.7334H78.2223Z" fill="white"/>
<path fill-rule="evenodd" clip-rule="evenodd" d="M49.5042 25.5693H49.5194V51.1971L34.68 53.0123C33.0285 51.185 31.1346 49.3849 29.2043 47.7061L49.18 47.2637L49.2012 47.2061L49.5042 47.2091V46.5334L48.0648 46.5546L48.08 46.4879L27.4619 46.2243C21.7043 41.4484 16.1558 37.9271 16.1528 37.9241L49.5042 41.6969V41.3211L48.0648 41.5272L48.1315 40.8181L13.4013 35.8574C8.84675 32.1361 5.79828 27.9997 3.77404 23.9117L48.1285 34.815L48.1194 34.0331L2.74677 21.6329C0.786165 16.8297 0.149804 12.2145 0.0498047 8.55078L49.5042 27.436V25.5693ZM49.5042 34.9998L49.2103 35.0816L49.5042 35.1543V34.9998Z" fill="#FF8C00"/>
<path fill-rule="evenodd" clip-rule="evenodd" d="M51.9801 34.0331L51.971 34.815L96.3224 23.9117C94.3012 27.9997 91.2497 32.1361 86.6982 35.8574L51.9679 40.8181L52.0346 41.5272L50.5952 41.3211V41.6969L83.9436 37.9241C83.9436 37.9271 78.3952 41.4484 72.6376 46.2243L52.0195 46.4879L52.0346 46.5546L50.5952 46.5334V47.2091L50.8983 47.2061L50.9195 47.2637L70.8922 47.7061C68.9619 49.3849 67.0709 51.185 65.4194 53.0123L50.5801 51.1971V25.5693H50.5952V27.436L100.05 8.55078C99.9497 12.2115 99.3103 16.8297 97.3497 21.6329L51.9801 34.0331ZM50.8892 35.0816L50.5952 35.0028V35.1543L50.8892 35.0816Z" fill="#FF8C00"/>
<path d="M71.0278 31.1871C71.0278 42.7752 61.6339 52.1663 50.0491 52.1663C38.4612 52.1663 29.0703 42.7752 29.0703 31.1871C29.0703 19.602 38.4612 10.2109 50.0491 10.2109C61.6339 10.2109 71.0278 19.602 71.0278 31.1871Z" fill="#FF8C00"/>
<path fill-rule="evenodd" clip-rule="evenodd" d="M50.0493 53.3758C37.8129 53.3758 27.8584 43.421 27.8584 31.1844C27.8584 18.9508 37.8129 8.99609 50.0493 8.99609C62.2856 8.99609 72.2401 18.9508 72.2401 31.1844C72.2401 43.421 62.2856 53.3758 50.0493 53.3758ZM50.0493 11.4204C39.1493 11.4204 30.2826 20.2872 30.2826 31.1844C30.2826 42.0847 39.1493 50.9515 50.0493 50.9515C60.9492 50.9515 69.8159 42.0847 69.8159 31.1844C69.8159 20.2872 60.9492 11.4204 50.0493 11.4204Z" fill="#031426"/>
<path d="M50.0468 0.734375L51.0377 2.74048L53.2528 3.06169L51.6498 4.62536L52.0286 6.83147L50.0468 5.78902L48.068 6.83147L48.4468 4.62536L46.8438 3.06169L49.0589 2.74048L50.0468 0.734375Z" fill="#FF8C00"/>
<path d="M60.9043 4.27344L61.8952 6.27954L64.1073 6.60076L62.5043 8.16139L62.8831 10.3705L60.9043 9.32808L58.9225 10.3705L59.3013 8.16139L57.6982 6.60076L59.9134 6.27954L60.9043 4.27344Z" fill="#FF8C00"/>
<path d="M39.498 4.27344L40.4859 6.27954L42.7041 6.60076L41.1011 8.16139L41.4768 10.3705L39.498 9.32808L37.5162 10.3705L37.895 8.16139L36.292 6.60076L38.5071 6.27954L39.498 4.27344Z" fill="#FF8C00"/>
<path fill-rule="evenodd" clip-rule="evenodd" d="M62.713 35.12C62.713 42.1141 57.0433 47.7839 50.0494 47.7839C43.0554 47.7839 37.3857 42.1141 37.3857 35.12C37.3857 30.9896 39.3615 27.3228 42.4221 25.0107C40.0645 21.8349 39.3857 19.1863 40.41 17.1317C42.0918 13.762 47.5069 13.768 48.216 13.7832H52.6615C53.3675 13.768 58.7857 13.762 60.4705 17.1317C61.5342 19.2681 60.7554 22.05 58.1615 25.3986C60.9402 27.7198 62.713 31.2108 62.713 35.12ZM50.0494 22.4561C52.116 22.4561 54.0645 22.9561 55.7887 23.8319C57.7069 21.4045 58.4705 19.4772 57.9342 18.3984C57.2221 16.9711 54.1099 16.5802 52.716 16.6196H48.1645C46.7645 16.5863 43.6494 16.9832 42.9463 18.4014C42.4312 19.4378 43.1191 21.2621 44.8797 23.5591C46.4585 22.8531 48.2069 22.4561 50.0494 22.4561Z" fill="white"/>
<path fill-rule="evenodd" clip-rule="evenodd" d="M62.713 35.12C62.713 42.1141 57.0433 47.7839 50.0494 47.7839C43.0554 47.7839 37.3857 42.1141 37.3857 35.12C37.3857 30.9896 39.3615 27.3228 42.4221 25.0107C40.0645 21.8349 39.3857 19.1863 40.41 17.1317C42.0918 13.762 47.5069 13.768 48.216 13.7832H52.6615C53.3675 13.768 58.7857 13.762 60.4705 17.1317C61.5342 19.2681 60.7554 22.05 58.1615 25.3986C60.9402 27.7198 62.713 31.2108 62.713 35.12ZM50.0494 22.4561C52.116 22.4561 54.0645 22.9561 55.7887 23.8319C57.7069 21.4045 58.4705 19.4772 57.9342 18.3984C57.2221 16.9711 54.1099 16.5802 52.716 16.6196H48.1645C46.7645 16.5863 43.6494 16.9832 42.9463 18.4014C42.4312 19.4378 43.1191 21.2621 44.8797 23.5591C46.4585 22.8531 48.2069 22.4561 50.0494 22.4561Z" fill="#031426"/>
<path d="M54.8613 14.8008C54.8613 14.8008 64.934 15.4462 58.0038 24.2313C58.0038 24.2313 63.1462 16.516 54.8613 14.8008Z" fill="#FF8C00"/>
<path d="M50.2012 23.6641C47.0709 23.6641 44.2376 24.9217 42.1709 26.9611C44.0618 25.5793 46.3921 24.7611 48.9103 24.7611C55.2254 24.7611 60.3466 29.8793 60.3466 36.1946C60.3466 39.3795 59.0406 42.2614 56.9406 44.3342C59.786 42.2523 61.6345 38.8917 61.6345 35.0976C61.6345 28.7824 56.5163 23.6641 50.2012 23.6641Z" fill="#FF8C00"/>
<path d="M35.9802 76.3415H37.1923V75.7354H35.2832V80.1295H37.1923V79.4931H35.9802V78.2203H36.9499V77.584H35.9802V76.3415ZM38.8287 76.7658C38.8287 78.0385 40.1923 78.19 40.1923 79.0991C40.1923 79.4022 40.0408 79.5234 39.8286 79.5234C39.6165 79.5234 39.465 79.4022 39.465 79.0991V78.7961H38.8287V79.0688C38.8287 79.7658 39.162 80.1598 39.859 80.1598C40.5256 80.1598 40.8893 79.7658 40.8893 79.0688C40.8893 77.7961 39.5256 77.6143 39.5256 76.7355C39.5256 76.4021 39.6468 76.2809 39.8893 76.2809C40.1014 76.2809 40.2226 76.4021 40.2226 76.7355V76.9173H40.8893V76.7658C40.8893 76.0688 40.5256 75.6445 39.859 75.6445C39.1923 75.6445 38.8287 76.0688 38.8287 76.7658ZM42.3741 76.3415H43.1014V80.0992H43.768V76.3415H44.4953V75.7051H42.3741V76.3415ZM45.5862 79.4628V80.1295H46.2529V79.4628H45.5862ZM50.5559 76.7658H51.1014V80.1295H51.7983V75.7051H51.3438C51.2226 76.0082 51.1014 76.2809 50.5559 76.2809V76.7658ZM56.1013 76.7658C56.1013 76.0688 55.7377 75.6445 55.071 75.6445C54.3741 75.6445 54.0104 76.0688 54.0104 76.7658V77.584C54.0104 78.2203 54.2832 78.584 54.768 78.584C55.1013 78.584 55.3135 78.4325 55.4347 78.19V79.0082C55.4347 79.4022 55.2832 79.5234 55.0407 79.5234C54.8286 79.5234 54.6771 79.4022 54.6771 79.0991V78.9476H54.0104V79.0688C54.0104 79.7658 54.3741 80.1598 55.071 80.1598C55.768 80.1598 56.1013 79.7658 56.1013 79.0082V76.7658ZM55.071 77.9476C54.8286 77.9476 54.7074 77.8264 54.7074 77.5234V76.7355C54.7074 76.4324 54.8286 76.3112 55.071 76.3112C55.2832 76.3112 55.4347 76.4324 55.4347 76.7355V77.5234C55.4347 77.8264 55.2832 77.9476 55.071 77.9476ZM59.7983 79.0688V78.7355C59.7983 78.3113 59.6771 77.9779 59.3741 77.7961C59.6468 77.6446 59.7983 77.3415 59.7983 76.9173V76.7658C59.7983 76.0688 59.4044 75.6748 58.7074 75.6748C58.0104 75.6748 57.6165 76.0688 57.6165 76.7658V76.9173C57.6165 77.3415 57.768 77.6446 58.071 77.7961C57.768 77.9779 57.6165 78.3113 57.6165 78.7355V79.0688C57.6165 79.7658 58.0104 80.1901 58.7074 80.1901C59.4044 80.1901 59.7983 79.7658 59.7983 79.0688ZM58.3135 79.0385V78.6446C58.3135 78.2809 58.465 78.1294 58.7074 78.1294C58.9498 78.1294 59.1013 78.2809 59.1013 78.6446V79.0385C59.1013 79.4325 58.9195 79.5537 58.7074 79.5537C58.4953 79.5537 58.3135 79.4325 58.3135 79.0385ZM58.3135 76.7961C58.3135 76.4021 58.4953 76.3112 58.7074 76.3112C58.9195 76.3112 59.1013 76.4021 59.1013 76.7961V77.0385C59.1013 77.4021 58.9195 77.5234 58.7074 77.5234C58.4953 77.5234 58.3135 77.4021 58.3135 77.0385V76.7961ZM63.7377 79.0688V78.7355C63.7377 78.3113 63.6165 77.9779 63.3134 77.7961C63.5862 77.6446 63.7377 77.3415 63.7377 76.9173V76.7658C63.7377 76.0688 63.3437 75.6748 62.6468 75.6748C61.9498 75.6748 61.5559 76.0688 61.5559 76.7658V76.9173C61.5559 77.3415 61.7074 77.6446 62.0104 77.7961C61.7074 77.9779 61.5559 78.3113 61.5559 78.7355V79.0688C61.5559 79.7658 61.9498 80.1901 62.6468 80.1901C63.3437 80.1901 63.7377 79.7658 63.7377 79.0688ZM62.2528 79.0385V78.6446C62.2528 78.3112 62.4043 78.1597 62.6468 78.1597C62.8892 78.1597 63.0407 78.3112 63.0407 78.6446V79.0385C63.0407 79.4325 62.8589 79.5537 62.6468 79.5537C62.4346 79.5537 62.2528 79.4325 62.2528 79.0385ZM62.2528 76.7961C62.2528 76.4021 62.4346 76.3112 62.6468 76.3112C62.8589 76.3112 63.0407 76.4021 63.0407 76.7961V77.0385C63.0407 77.4021 62.8589 77.5234 62.6468 77.5234C62.4346 77.5234 62.2528 77.4021 62.2528 77.0385V76.7961Z" fill="white"/>
<path d="M14.865 61.457L16.174 64.1056L19.0953 64.5298L16.9801 66.5905L17.4801 69.5026L14.865 68.1269L12.2528 69.5026L12.7528 66.5905L10.6377 64.5298L13.5589 64.1056L14.865 61.457Z" fill="white"/>
<path d="M85.2313 61.1523L86.5373 63.8009L89.4616 64.2251L87.3464 66.2858L87.8464 69.198L85.2313 67.8222L82.6161 69.198L83.1161 66.2858L81.001 64.2251L83.9222 63.8009L85.2313 61.1523Z" fill="white"/>
</svg>
